<svg height="32" viewBox="0 0 32 32" width="32" xmlns="http://www.w3.org/2000/svg"><path d="m26.667 0h-21.333c-2.934 0-5.334 2.4-5.334 5.334v21.332c0 2.936 2.4 5.334 5.334 5.334h21.333c2.934 0 5.333-2.398 5.333-5.334v-21.332c0-2.934-2.399-5.334-5.333-5.334zm0 4c.25 0 .486.073.688.198l-11.355 9.388-11.355-9.387c.202-.125.439-.198.689-.198h21.333zm-21.333 24c-.06 0-.119-.005-.178-.013l7.051-9.78-.914-.914-7.293 7.293v-19.098l12 14.512 12-14.512v19.098l-7.293-7.293-.914.914 7.051 9.78c-.058.008-.117.013-.177.013z"/></svg>