<?xml version="1.0" standalone="no"?>
<!DOCTYPE svg PUBLIC "-//W3C//DTD SVG 20010904//EN"
 "http://www.w3.org/TR/2001/REC-SVG-20010904/DTD/svg10.dtd">
<svg version="1.0" xmlns="http://www.w3.org/2000/svg"
 width="260.000000pt" height="260.000000pt" viewBox="0 0 260.000000 260.000000"
 preserveAspectRatio="xMidYMid meet">
<metadata>
Created by potrace 1.14, written by Peter Selinger 2001-2017
</metadata>
<g transform="translate(0.000000,260.000000) scale(0.100000,-0.100000)"
fill="#000000" stroke="none">
<path d="M263 2563 c-108 -67 -178 -144 -231 -252 -26 -54 -27 -62 -27 -216
l0 -160 32 -66 c59 -120 154 -207 308 -283 l84 -41 -214 0 -215 1 0 -353 0
-352 235 0 234 0 6 37 c4 20 9 49 11 64 l6 28 36 -29 c108 -86 260 -132 435
-133 83 0 117 -4 114 -12 -3 -6 -30 -94 -61 -196 -32 -102 -62 -199 -67 -216
-9 -31 -10 -31 -76 -30 -70 2 -102 -14 -104 -49 -1 -19 -1 -202 0 -260 l1 -45
415 0 415 0 0 161 c0 194 0 195 -104 193 -73 -1 -75 2 -51 59 l15 36 215 0
c237 0 230 2 237 -65 l3 -29 -80 -1 c-129 -1 -125 5 -125 -189 l0 -165 445 0
445 0 0 175 c0 150 -2 175 -15 175 -9 0 -20 10 -25 23 -6 12 -78 240 -161 507
-227 734 -250 804 -265 821 -12 14 -54 16 -332 16 l-319 0 -54 40 c-55 41
-154 95 -241 129 -27 11 -48 22 -48 25 0 3 98 5 218 4 119 0 222 1 228 3 9 2
12 96 12 343 l0 339 -257 -2 c-196 -2 -256 -6 -257 -15 -1 -7 -2 -29 -3 -48
l-1 -36 -53 38 c-92 66 -71 63 -400 63 l-303 0 -61 -37z m685 -402 c71 -36
108 -97 115 -189 4 -49 20 -50 -145 8 -136 48 -210 89 -223 124 -8 22 -5 31
17 53 46 46 151 47 236 4z m-275 -690 c192 -58 209 -64 226 -85 54 -65 -144
-105 -275 -56 -43 17 -83 49 -99 81 -14 26 -28 109 -19 109 2 0 77 -22 167
-49z m1050 -461 c24 -80 47 -158 51 -175 l6 -30 -105 0 c-65 0 -105 3 -105 10
0 5 23 84 50 174 28 91 50 167 50 169 0 17 13 -19 53 -148z"/>
</g>
</svg>
